<svg width="53" height="22" viewBox="0 0 53 22" fill="none" xmlns="http://www.w3.org/2000/svg">
<path d="M28 11C28 10.1655 27.3368 9.48276 26.5263 9.48276L5.01053 9.48276L11.6789 2.57931C12.2684 1.97241 12.2684 1.02414 11.6789 0.417239C11.4211 0.151723 11.0526 -9.66252e-07 10.6474 -9.30823e-07C10.2789 -8.98614e-07 9.87368 0.151723 9.61579 0.455171L0.442104 9.93793C-0.147369 10.5448 -0.147369 11.4931 0.442104 12.0621L9.61579 21.5448C10.2053 22.1517 11.1263 22.1517 11.7158 21.5448C12.3053 20.9379 12.3053 19.9897 11.7158 19.3828L5.01053 12.5172L26.5263 12.5172C27.3368 12.5172 28 11.8345 28 11Z" fill="#049400"/>
<path d="M53 11C53 11.8284 52.3284 12.5 51.5 12.5L26 12.5L26 9.5L51.5 9.5C52.3284 9.5 53 10.1716 53 11Z" fill="#049400"/>
</svg>
