<svg width="9" height="15" viewBox="0 0 9 15" fill="none" xmlns="http://www.w3.org/2000/svg">
<path d="M5.51935 7.53148L0.41897 12.5714C0.150622 12.8382 4.42477e-07 13.199 4.75556e-07 13.5751C5.08635e-07 13.9513 0.150623 14.3121 0.41897 14.5789C0.55291 14.7123 0.712263 14.8182 0.887836 14.8905C1.06341 14.9628 1.25173 15 1.44193 15C1.63213 15 1.82045 14.9628 1.99602 14.8905C2.17159 14.8182 2.33095 14.7123 2.46489 14.5789L8.57382 8.54232C8.70886 8.40996 8.81605 8.2525 8.88919 8.07901C8.96234 7.90551 9 7.71943 9 7.53148C9 7.34353 8.96234 7.15744 8.88919 6.98395C8.81605 6.81046 8.70886 6.65299 8.57382 6.52064L2.46489 0.412904C2.33026 0.280951 2.1706 0.176558 1.99505 0.105707C1.81951 0.0348567 1.63154 -0.00105865 1.44193 2.47325e-05C1.25231 -0.00105863 1.06434 0.0348567 0.8888 0.105707C0.713259 0.176558 0.553596 0.280951 0.418969 0.412904C0.150621 0.679654 -6.26827e-07 1.0405 -5.93748e-07 1.41662C-5.60669e-07 1.79275 0.150621 2.15359 0.418969 2.42034L5.51935 7.53148Z" fill="#049400"/>
</svg>
