<svg width="115" height="85" viewBox="0 0 115 85" fill="none" xmlns="http://www.w3.org/2000/svg">
<path d="M0 0H72.5C95.9721 0 115 19.0279 115 42.5C115 65.9721 95.9721 85 72.5 85H0V0Z" fill="white"/>
<path d="M56 42C56 42.8345 56.6632 43.5172 57.4737 43.5172H78.9895L72.3211 50.4207C71.7316 51.0276 71.7316 51.9759 72.3211 52.5828C72.5789 52.8483 72.9474 53 73.3526 53C73.7211 53 74.1263 52.8483 74.3842 52.5448L83.5579 43.0621C84.1474 42.4552 84.1474 41.5069 83.5579 40.9379L74.3842 31.4552C73.7947 30.8483 72.8737 30.8483 72.2842 31.4552C71.6947 32.0621 71.6947 33.0103 72.2842 33.6172L78.9895 40.4828H57.4737C56.6632 40.4828 56 41.1655 56 42Z" fill="#049400"/>
<path d="M31 42C31 41.1716 31.6716 40.5 32.5 40.5H58V43.5H32.5C31.6716 43.5 31 42.8284 31 42Z" fill="#049400"/>
</svg>
