<svg width="9" height="15" viewBox="0 0 9 15" fill="none" xmlns="http://www.w3.org/2000/svg">
<path d="M3.48065 7.46852L8.58103 2.42857C8.84938 2.16182 9 1.80098 9 1.42485C9 1.04873 8.84938 0.687883 8.58103 0.421132C8.44709 0.28769 8.28774 0.181773 8.11216 0.109493C7.93659 0.037213 7.74827 -6.29302e-08 7.55807 -6.30287e-08C7.36787 -6.31272e-08 7.17955 0.037213 7.00398 0.109493C6.82841 0.181773 6.66905 0.28769 6.53511 0.421132L0.426182 6.45768C0.29114 6.59004 0.183954 6.7475 0.110808 6.92099C0.0376612 7.09449 6.3543e-07 7.28057 6.27215e-07 7.46852C6.18999e-07 7.65647 0.0376612 7.84256 0.110808 8.01605C0.183954 8.18954 0.29114 8.34701 0.426182 8.47936L6.53511 14.5871C6.66974 14.719 6.8294 14.8234 7.00494 14.8943C7.18049 14.9651 7.36845 15.0011 7.55807 15C7.74769 15.0011 7.93566 14.9651 8.1112 14.8943C8.28674 14.8234 8.4464 14.719 8.58103 14.5871C8.84938 14.3203 9 13.9595 9 13.5834C9 13.2073 8.84938 12.8464 8.58103 12.5797L3.48065 7.46852Z" fill="#049400"/>
</svg>
