<svg width="11" height="7" viewBox="0 0 11 7" fill="none" xmlns="http://www.w3.org/2000/svg">
<path d="M5.47785 4.2075L1.93785 0.667502C1.75049 0.481251 1.49704 0.376709 1.23285 0.376709C0.968668 0.376709 0.715216 0.481251 0.527854 0.667502C0.434126 0.760465 0.359731 0.871066 0.308962 0.992925C0.258194 1.11478 0.232056 1.24549 0.232056 1.3775C0.232056 1.50951 0.258194 1.64022 0.308962 1.76208C0.359731 1.88394 0.434126 1.99454 0.527854 2.0875L4.76785 6.3275C4.86082 6.42123 4.97142 6.49562 5.09328 6.54639C5.21514 6.59716 5.34584 6.6233 5.47785 6.6233C5.60987 6.6233 5.74057 6.59716 5.86243 6.54639C5.98429 6.49562 6.09489 6.42123 6.18785 6.3275L10.4779 2.0875C10.5705 1.99406 10.6439 1.88325 10.6936 1.76141C10.7434 1.63957 10.7686 1.50911 10.7679 1.3775C10.7686 1.24589 10.7434 1.11543 10.6936 0.993595C10.6439 0.871758 10.5705 0.760941 10.4779 0.667501C10.2905 0.48125 10.037 0.376709 9.77285 0.376709C9.50867 0.376709 9.25522 0.481251 9.06785 0.667501L5.47785 4.2075Z" fill="#049400"/>
</svg>
