<svg width="9" height="8" viewBox="0 0 9 8" fill="none" xmlns="http://www.w3.org/2000/svg">
<path d="M7.49292 0.977573C7.53978 0.925347 7.59572 0.883858 7.65745 0.855535C7.71918 0.827211 7.78546 0.812622 7.85241 0.812622C7.91937 0.812622 7.98565 0.827211 8.04738 0.855535C8.10911 0.883858 8.16505 0.925347 8.21191 0.977573C8.40831 1.19432 8.41106 1.54457 8.21878 1.76507L4.15821 7.00757C4.11211 7.06286 4.05616 7.1073 3.9938 7.13816C3.93143 7.16903 3.86395 7.18567 3.79549 7.18708C3.72703 7.18848 3.65903 7.17462 3.59565 7.14633C3.53226 7.11804 3.47483 7.07593 3.42686 7.02257L0.956042 4.28807C0.860751 4.18194 0.807373 4.03922 0.807373 3.89057C0.807373 3.74193 0.860751 3.59921 0.956042 3.49307C1.00291 3.44085 1.05884 3.39936 1.12057 3.37103C1.1823 3.34271 1.24858 3.32812 1.31554 3.32812C1.38249 3.32812 1.44878 3.34271 1.51051 3.37103C1.57224 3.39936 1.62817 3.44085 1.67504 3.49307L3.7709 5.81282L7.47918 0.994073C7.48345 0.988276 7.48804 0.982766 7.49292 0.977573Z" fill="#ABB6BF"/>
</svg>
