<svg width="15" height="15" viewBox="0 0 15 15" fill="none" xmlns="http://www.w3.org/2000/svg">
<path fill-rule="evenodd" clip-rule="evenodd" d="M0.888815 0.888516L0.708376 1.06897C0.317487 1.45988 0.317942 2.09379 0.709391 2.48415L2.85349 4.62225C4.42275 6.18713 5.70669 7.4821 5.70669 7.49998C5.70669 7.51787 4.42268 8.81304 2.85336 10.3781L0.710184 12.5155C0.318304 12.9063 0.318392 13.5411 0.710381 13.9318L0.890609 14.1115L1.07347 14.2937C1.46443 14.6834 2.09721 14.6826 2.48718 14.2919L4.64478 12.1304L6.79978 9.97154C7.19077 9.57985 7.82555 9.58022 8.21609 9.97237L10.3657 12.1308L12.5159 14.29C12.9062 14.6819 13.5405 14.6826 13.9316 14.2915L14.1115 14.1116L14.2918 13.9313C14.6828 13.5404 14.6824 12.9064 14.2909 12.516L12.1468 10.378C10.5776 8.8131 9.29364 7.51806 9.29364 7.50011C9.29364 7.48216 10.5776 6.18713 12.1468 4.62225L14.2908 2.48429C14.6823 2.09388 14.6827 1.45986 14.2917 1.06897L14.1115 0.888874L13.9316 0.709066C13.5405 0.318065 12.9062 0.318813 12.516 0.710736L10.3642 2.87195L8.21342 5.03206C7.82278 5.4244 7.18771 5.42467 6.79674 5.03266L4.64136 2.87159L2.48444 0.708971C2.09407 0.317568 1.46019 0.317149 1.0693 0.708036L0.888815 0.888516Z" fill="#37415E"/>
</svg>
