<svg width="21" height="21" viewBox="0 0 21 21" fill="none" xmlns="http://www.w3.org/2000/svg">
<path d="M16.3625 5.99376H20.7375L15.0062 0.262512V4.63751C15.0062 5.38126 15.6187 5.99376 16.3625 5.99376Z" fill="white"/>
<path d="M16.3625 6.86875C15.1375 6.86875 14.1312 5.8625 14.1312 4.6375V0H6.16875C4.94375 0 3.9375 1.00625 3.9375 2.23125V2.275H10.15C10.9813 2.275 11.6813 2.975 11.6813 3.80625V7.91875C11.6813 8.79375 10.9813 9.45 10.15 9.45H3.9375V18.725C3.9375 19.95 4.94375 20.9562 6.16875 20.9562H18.7688C19.9938 20.9562 21 19.95 21 18.725V6.86875H16.3625ZM17.9812 17.675H6.95625V16.8H17.9812V17.675ZM17.9812 14.5687H6.95625V13.6937H17.9812V14.5687ZM17.9812 11.4187H6.95625V10.5437H17.9812V11.4187Z" fill="white"/>
<path d="M5.29375 5.20624H5.03125V6.51874H5.3375C5.55625 6.51874 5.73125 6.47499 5.8625 6.34374C5.99375 6.21249 6.0375 6.08124 6.0375 5.86249C6.0375 5.64374 5.99375 5.46874 5.8625 5.38124C5.73125 5.29374 5.55625 5.20624 5.29375 5.20624Z" fill="white"/>
<path d="M10.1937 3.14999H0.65625C0.30625 3.14999 0 3.45624 0 3.80624V7.91874C0 8.26874 0.30625 8.57499 0.65625 8.57499H10.15C10.5 8.57499 10.8062 8.26874 10.8062 7.91874V3.80624C10.85 3.45624 10.5437 3.14999 10.1937 3.14999ZM3.9375 6.16874C3.7625 6.29999 3.54375 6.34374 3.2375 6.34374H2.93125V6.95624H2.45V4.81249H3.19375C3.54375 4.81249 3.7625 4.85624 3.89375 4.98749C4.025 5.11874 4.1125 5.29374 4.1125 5.59999C4.15625 5.86249 4.1125 6.03749 3.9375 6.16874ZM6.2125 6.64999C5.99375 6.82499 5.6875 6.95624 5.29375 6.95624H4.55V4.81249H5.29375C5.6875 4.81249 5.95 4.89999 6.16875 5.07499C6.3875 5.24999 6.475 5.51249 6.475 5.86249C6.475 6.21249 6.3875 6.47499 6.2125 6.64999ZM8.4 5.20624H7.39375V5.68749H8.35625V6.12499H7.39375V6.95624H6.9125V4.81249H8.4V5.20624Z" fill="white"/>
<path d="M3.2375 5.20624H2.93125V5.94999H3.2375C3.4125 5.94999 3.5 5.90624 3.54375 5.86249C3.5875 5.81874 3.63125 5.68749 3.63125 5.59999C3.63125 5.46874 3.5875 5.38124 3.5 5.33749C3.5 5.24999 3.36875 5.20624 3.2375 5.20624Z" fill="white"/>
</svg>
